<svg version="1.1" id="Layer_1" xmlns="http://www.w3.org/2000/svg" xmlns:xlink="http://www.w3.org/1999/xlink" x="0px" y="0px"
     width="31.9px" height="31.7px" viewBox="0 0 31.9 31.7" enable-background="new 0 0 31.9 31.7" xml:space="preserve">
<style>
	.robot-icon {
	    fill: #4fd96d;
	}
</style>
<path class="robot-icon" d="M20.2,0h-8.7v8.2h8.7V0L20.2,0z M13.7,5.6c-0.8,0-1.4-0.6-1.4-1.4c0-0.8,0.6-1.4,1.4-1.4c0.8,0,1.4,0.6,1.4,1.4
    C15.2,4.9,14.5,5.6,13.7,5.6z M18,5.6c-0.8,0-1.4-0.6-1.4-1.4c0-0.8,0.6-1.4,1.4-1.4c0.8,0,1.4,0.6,1.4,1.4
    C19.4,4.9,18.8,5.6,18,5.6z M30.1,18.1c-0.1-2.8-1.3-4.7-2.8-5.9c-1.2-1-2.5-1.4-3.6-1.6v-1H8.1v1c-1.1,0.2-2.4,0.6-3.6,1.6
    c-1.5,1.1-2.7,3.1-2.8,5.9c-1.1,0.4-1.8,1.4-1.8,2.5c0,1.5,1.2,2.7,2.7,2.7v-1.2c-0.8,0-1.5-0.7-1.5-1.5c0-0.8,0.7-1.5,1.5-1.5
    c0.8,0,1.5,0.7,1.5,1.5h1.2c0-1.2-0.8-2.2-1.9-2.6c0.1-2.3,1-3.6,2.1-4.5c0.8-0.7,1.8-1,2.6-1.2v9.4h1.4v6.2c-1.6,0.6-2.7,2-2.7,3.8
    h8.1c0-1.8-1.1-3.2-2.7-3.8v-6.2h7.4v6.2c-1.6,0.6-2.7,2-2.7,3.8h8.1c0-1.8-1.1-3.2-2.7-3.8v-6.2h1.4v-9.4c0.8,0.2,1.8,0.5,2.6,1.2
    c1.1,0.9,2,2.2,2.1,4.5c-1.1,0.3-1.9,1.4-1.9,2.6h1.2c0-0.8,0.7-1.5,1.5-1.5c0.8,0,1.5,0.7,1.5,1.5c0,0.8-0.7,1.5-1.5,1.5v1.2
    c1.5,0,2.7-1.2,2.7-2.7C31.9,19.4,31.1,18.4,30.1,18.1z M14.7,17.7h-1.5v-1.5h1.5V17.7z M14.7,15.8h-1.5v-1.5h1.5V15.8z M16.6,17.7
    h-1.5v-1.5h1.5V17.7z M16.6,15.8h-1.5v-1.5h1.5V15.8z M18.6,17.7H17v-1.5h1.5V17.7z M18.6,15.8H17v-1.5h1.5V15.8z M23.5,3
    c0-1.2-1-2.2-2.2-2.2v4.4C22.6,5.2,23.5,4.2,23.5,3z M10.4,5.2V0.8c-1.2,0-2.2,1-2.2,2.2C8.2,4.2,9.2,5.2,10.4,5.2z"/>
</svg>
